<svg version="1.1" xmlns="http://www.w3.org/2000/svg" height="1024" width="1024" viewBox="0 0 1024 1024"><path d="M523.2 54.4c22.4 1.6 49.6 3.2 76.8 8 17.6 3.2 35.2 8 52.8 12.8 41.6 12.8 81.6 30.4 116.8 54.4 14.4 9.6 27.2 17.6 40 28.8 17.6 14.4 33.6 32 49.6 48 28.8 30.4 51.2 65.6 68.8 104 12.8 28.8 27.2 57.6 33.6 89.6 6.4 30.4 11.2 60.8 11.2 92.8s0 65.6-4.8 97.6c-8 40-17.6 78.4-36.8 113.6l-33.6 62.4c-14.4 24-32 44.8-51.2 65.6-22.4 24-48 44.8-75.2 62.4-43.2 27.2-88 48-136 60.8-24 6.4-48 11.2-72 12.8-27.2 1.6-56 3.2-84.8 0-27.2-3.2-52.8-9.6-80-16-35.2-8-67.2-24-99.2-41.6-38.4-20.8-73.6-48-104-80-25.6-30.4-49.6-59.2-65.6-94.4-14.4-28.8-27.2-57.6-38.4-88-11.2-33.6-17.6-70.4-20.8-105.6-3.2-43.2 0-86.4 11.2-128 6.4-28.8 16-56 25.6-83.2 6.4-17.6 17.6-35.2 27.2-51.2 19.2-35.2 44.8-64 73.6-92.8 16-16 33.6-32 52.8-44.8 35.2-25.6 73.6-44.8 115.2-59.2 32-11.2 62.4-17.6 96-22.4 12.8-4.8 28.8-4.8 51.2-6.4z m16 894.4c12.8-1.6 35.2-3.2 59.2-8 27.2-6.4 54.4-12.8 80-22.4 19.2-6.4 36.8-16 54.4-25.6 16-9.6 33.6-17.6 48-30.4 19.2-16 38.4-32 54.4-49.6 20.8-22.4 40-46.4 56-72 17.6-30.4 33.6-60.8 43.2-96 16-48 22.4-97.6 22.4-148.8 0-14.4 0-28.8-3.2-41.6-3.2-22.4-8-43.2-12.8-65.6-3.2-12.8-8-27.2-12.8-38.4-8-17.6-16-35.2-25.6-51.2-12.8-22.4-27.2-46.4-43.2-67.2-20.8-27.2-43.2-49.6-72-68.8-19.2-12.8-36.8-27.2-57.6-38.4-35.2-19.2-73.6-33.6-113.6-41.6s-81.6-11.2-121.6-8c-38.4 1.6-75.2 9.6-112 22.4-36.8 12.8-73.6 28.8-104 51.2-22.4 17.6-46.4 35.2-65.6 54.4-20.8 20.8-40 44.8-56 70.4C137.6 304 121.6 336 112 371.2c-9.6 28.8-16 57.6-20.8 86.4-6.4 38.4-6.4 76.8 0 115.2 4.8 36.8 16 72 30.4 107.2 22.4 52.8 51.2 97.6 91.2 139.2 27.2 28.8 57.6 54.4 92.8 73.6 33.6 19.2 68.8 35.2 107.2 44.8 36.8 6.4 76.8 11.2 126.4 11.2z" fill="#FF090B"></path><path d="M539.2 948.8c-49.6 0-89.6-4.8-128-14.4-36.8-9.6-73.6-25.6-107.2-44.8-35.2-19.2-65.6-44.8-92.8-73.6-38.4-40-68.8-86.4-91.2-139.2-14.4-35.2-24-70.4-30.4-107.2-6.4-38.4-6.4-76.8 0-115.2 6.4-25.6 12.8-54.4 20.8-81.6 11.2-33.6 27.2-65.6 44.8-97.6 16-25.6 35.2-49.6 56-70.4 20.8-20.8 43.2-36.8 65.6-54.4 32-24 67.2-38.4 104-51.2 36.8-12.8 73.6-20.8 112-22.4 41.6-1.6 81.6 0 121.6 8s78.4 22.4 113.6 41.6c19.2 11.2 38.4 25.6 57.6 38.4 27.2 19.2 51.2 41.6 72 68.8 16 20.8 30.4 44.8 43.2 67.2 9.6 16 17.6 33.6 25.6 51.2 4.8 12.8 9.6 25.6 12.8 38.4 4.8 20.8 9.6 43.2 12.8 65.6 1.6 14.4 3.2 27.2 3.2 41.6 1.6 51.2-6.4 100.8-22.4 148.8-11.2 33.6-25.6 65.6-43.2 96-16 25.6-35.2 49.6-56 72-16 17.6-33.6 33.6-52.8 49.6-14.4 11.2-30.4 20.8-48 30.4-17.6 9.6-35.2 19.2-54.4 25.6-25.6 9.6-52.8 16-80 22.4-22.4 3.2-46.4 4.8-59.2 6.4zM233.6 681.6c-1.6 0-1.6 0 0 0-3.2-12.8-12.8-20.8-16-30.4-3.2 4.8-4.8 9.6-8 12.8-6.4 6.4-14.4 11.2-20.8 16-3.2 3.2-8 3.2-12.8 4.8 11.2 17.6 22.4 38.4 35.2 57.6l1.6-1.6c0-1.6-1.6-4.8-1.6-6.4 9.6-8 20.8-16 30.4-24 3.2-3.2 6.4-6.4 11.2-1.6-3.2-8-6.4-14.4-9.6-19.2-4.8-1.6-8-4.8-9.6-8z m452.8 17.6s0-1.6 1.6-1.6l-4.8-4.8c-12.8-12.8-25.6-25.6-27.2-44.8-3.2-30.4-4.8-59.2-6.4-89.6-1.6-41.6-3.2-84.8-6.4-126.4 0-11.2-3.2-22.4-4.8-32-1.6-8-8-12.8-14.4-12.8-9.6-1.6-17.6-1.6-27.2 0-8 0-11.2-1.6-11.2-9.6-1.6-17.6-3.2-35.2-6.4-52.8-1.6-19.2-11.2-28.8-30.4-33.6-3.2-1.6-8-1.6-12.8-1.6V288h25.6c9.6 0 19.2-12.8 14.4-24-8 9.6-19.2 6.4-28.8 6.4-8 0-12.8 3.2-16 11.2-1.6 3.2-1.6 6.4-1.6 8-6.4 0-6.4 0-9.6-6.4-3.2-9.6-8-12.8-17.6-14.4-9.6 0-19.2-1.6-27.2-3.2 0 14.4 4.8 19.2 19.2 20.8 6.4 0 11.2 1.6 17.6 1.6-1.6 1.6-3.2 1.6-3.2 1.6-28.8 6.4-36.8 16-40 38.4-1.6 17.6-3.2 35.2-3.2 52.8 0 4.8-1.6 6.4-6.4 6.4H432c-11.2 0-17.6 4.8-20.8 16-3.2 14.4-4.8 27.2-4.8 41.6-1.6 24-3.2 46.4-4.8 70.4-1.6 14.4-3.2 28.8-3.2 43.2-1.6 25.6-3.2 49.6-4.8 75.2-1.6 17.6-6.4 33.6-19.2 46.4l-20.8 20.8c9.6 0 16-1.6 22.4 0 16 1.6 28.8-3.2 36.8-17.6h1.6c-3.2 6.4-6.4 11.2-11.2 17.6 8 0 14.4-1.6 22.4 0 6.4 0 9.6-3.2 12.8-8 6.4-17.6 8-36.8 8-56 1.6-33.6 3.2-65.6 4.8-99.2 1.6-19.2 1.6-38.4 3.2-57.6 0-8 1.6-16 1.6-25.6 1.6-9.6 11.2-12.8 24-9.6-3.2 6.4-6.4 14.4-8 20.8-1.6 17.6-1.6 36.8-3.2 54.4-1.6 36.8-1.6 73.6-4.8 110.4-1.6 28.8 12.8 56 35.2 65.6 35.2 14.4 76.8-9.6 78.4-49.6 1.6-24 0-49.6 0-73.6 0-32-1.6-64-1.6-94.4 0-12.8-1.6-24-12.8-33.6h17.6c6.4 0 11.2 3.2 12.8 11.2 1.6 11.2 1.6 22.4 1.6 33.6 0 14.4 0 28.8 1.6 43.2 1.6 27.2 1.6 54.4 3.2 81.6 1.6 24 3.2 49.6 6.4 73.6 1.6 14.4 6.4 17.6 20.8 16h12.8c3.2 0 4.8-1.6 6.4-3.2 12.8 1.6 25.6-3.2 40-1.6z m-25.6 73.6c8-4.8 16-8 22.4-12.8 22.4-16 46.4-33.6 62.4-57.6 14.4-19.2 28.8-38.4 40-59.2 9.6-19.2 17.6-38.4 22.4-59.2 4.8-20.8 9.6-43.2 9.6-65.6 1.6-19.2-1.6-40-4.8-59.2-4.8-40-19.2-78.4-43.2-110.4-22.4-33.6-49.6-62.4-83.2-86.4-35.2-24-73.6-40-113.6-48-35.2-6.4-70.4-6.4-105.6 1.6-27.2 6.4-54.4 14.4-80 27.2-33.6 17.6-64 40-88 70.4-14.4 17.6-28.8 36.8-38.4 56-14.4 30.4-25.6 60.8-30.4 94.4-6.4 43.2-3.2 86.4 8 128 8 28.8 20.8 56 38.4 81.6 11.2 16 24 33.6 38.4 46.4 17.6 17.6 38.4 30.4 57.6 46.4 3.2 1.6 6.4 4.8 8 0 1.6-3.2 3.2-6.4-1.6-11.2-12.8-8-25.6-14.4-35.2-25.6-19.2-17.6-36.8-36.8-51.2-57.6-11.2-14.4-19.2-32-27.2-48-14.4-28.8-22.4-59.2-24-91.2-3.2-27.2-1.6-54.4 4.8-80 6.4-30.4 16-59.2 32-84.8 12.8-22.4 27.2-41.6 44.8-60.8 20.8-20.8 43.2-40 70.4-52.8 27.2-14.4 54.4-24 84.8-28.8 28.8-4.8 57.6-6.4 86.4-1.6 25.6 3.2 51.2 11.2 75.2 20.8 24 11.2 46.4 25.6 67.2 44.8 27.2 24 52.8 51.2 70.4 84.8 17.6 32 27.2 67.2 32 104 4.8 49.6-3.2 96-20.8 142.4-8 20.8-20.8 38.4-33.6 56-19.2 25.6-41.6 48-67.2 67.2l-28.8 19.2c-1.6 3.2 0 6.4 1.6 9.6zM188.8 363.2c0 3.2-1.6 8 0 11.2 0 1.6 3.2 4.8 4.8 6.4 1.6 0 4.8-3.2 6.4-4.8 1.6-4.8 1.6-11.2 3.2-16 1.6-3.2 4.8-4.8 6.4-8 3.2-3.2 8-4.8 9.6-9.6 3.2-6.4 4.8-14.4 6.4-22.4 1.6-4.8 3.2-11.2 4.8-16 3.2-6.4 1.6-9.6-3.2-12.8-11.2-4.8-22.4-6.4-32 0-14.4 8-22.4 20.8-28.8 35.2-6.4 14.4-9.6 28.8-4.8 44.8v3.2c-4.8 3.2-11.2 3.2-12.8 6.4-3.2 6.4 0 12.8 6.4 14.4 9.6 4.8 19.2 8 28.8 9.6 3.2 0 9.6-3.2 9.6-6.4 1.6-4.8-3.2-8-8-9.6-4.8-1.6-11.2-6.4-12.8-9.6-3.2-6.4-3.2-14.4-4.8-22.4 9.6 1.6 14.4 3.2 20.8 6.4z m560 401.6c9.6 0 36.8 32 35.2 38.4 6.4-6.4 16-12.8 22.4-19.2-4.8-3.2-8-4.8-11.2-6.4-3.2-1.6-4.8-4.8-6.4-6.4-1.6-1.6-1.6-4.8-3.2-6.4 3.2 0 4.8 1.6 8 1.6 1.6 0 1.6 1.6 1.6 3.2 4.8 4.8 11.2 8 17.6 4.8 6.4-3.2 11.2-12.8 9.6-19.2-3.2-1.6-6.4-1.6-8-3.2-4.8-1.6-9.6-4.8-16-8-1.6 1.6-1.6 0-1.6-1.6 3.2-6.4 0-12.8-4.8-16-4.8-4.8-11.2 0-14.4 3.2l-14.4 14.4c-1.6 6.4-8 12.8-14.4 20.8z m102.4-419.2c-3.2-3.2-6.4-8-11.2-12.8-3.2-3.2-4.8-9.6-11.2-4.8-4.8 3.2-1.6 9.6 0 12.8l4.8 4.8c14.4 4.8 24 14.4 32 27.2 1.6 1.6 0 3.2 0 6.4-4.8-1.6-8-1.6-11.2-3.2 3.2 6.4 4.8 9.6 8 14.4 0 0 1.6 1.6 3.2 1.6 6.4 0 12.8-6.4 9.6-12.8-1.6-1.6-1.6-4.8-4.8-8 4.8 0 8 1.6 11.2 0 3.2 0 6.4 0 8-3.2 3.2-3.2 6.4-3.2 9.6 0 1.6 1.6 4.8 1.6 8 1.6 1.6 0 1.6-4.8 1.6-6.4 9.6 0 11.2-1.6 8-11.2-12.8 4.8-24 4.8-36.8-1.6 6.4 0 11.2 0 16-1.6 1.6 0 4.8-3.2 4.8-4.8l-1.6-3.2h-8c-1.6 0-4.8 1.6-8 3.2 1.6-3.2 1.6-4.8 1.6-6.4 0-3.2-1.6-4.8-1.6-8-1.6 1.6-4.8 1.6-6.4 3.2-4.8 3.2-8 4.8-12.8 8-1.6 0-6.4 1.6-12.8 4.8z m-105.6 484.8c-3.2-6.4-6.4-12.8-11.2-19.2l1.6-1.6c4.8 1.6 8 3.2 12.8 4.8 0 0 0-1.6 1.6-1.6-4.8-6.4-8-12.8-12.8-19.2H736v12.8c-1.6 0-1.6 0-3.2 1.6-3.2-6.4-8-12.8-11.2-17.6 9.6-9.6 17.6-3.2 25.6 1.6v-1.6c-3.2-4.8-6.4-11.2-9.6-17.6-14.4 11.2-27.2 20.8-41.6 32 11.2 1.6 32 36.8 28.8 48 14.4-11.2 27.2-20.8 40-30.4 0 0 1.6-1.6 1.6-3.2-3.2-6.4-6.4-11.2-9.6-17.6 0 0-1.6 0-1.6 1.6 0 20.8 0 20.8-9.6 27.2z m-339.2-1.6c-3.2-1.6-8-4.8-12.8-6.4l-1.6 1.6c9.6 9.6 0 16-1.6 24-3.2-9.6-4.8-19.2-8-28.8-1.6-6.4-25.6-16-27.2-12.8 1.6 1.6 3.2 1.6 6.4 3.2l-14.4 38.4c-1.6 3.2-4.8 4.8-8 8 3.2 1.6 8 4.8 14.4 8-1.6-6.4-4.8-9.6-3.2-12.8 3.2-9.6 8-19.2 11.2-28.8 3.2 12.8 6.4 27.2 8 40 1.6 8 4.8 12.8 14.4 14.4 4.8-12.8 9.6-27.2 16-40 0-1.6 3.2-4.8 6.4-8z m257.6-654.4l1.6 1.6c-6.4 4.8-11.2 9.6-17.6 12.8-3.2 1.6-6.4 6.4-11.2 3.2-1.6 0-6.4 1.6-6.4 4.8-1.6 3.2-1.6 8-1.6 11.2h8c16-8 32-16 43.2-32 1.6-3.2 6.4-3.2 9.6-4.8h24c-3.2-12.8-11.2-12.8-22.4-11.2 4.8-4.8 8-9.6 11.2-14.4 3.2-6.4 0-11.2-8-16-3.2 6.4-6.4 11.2-8 16-6.4 14.4-14.4 14.4-25.6 6.4-4.8-3.2-9.6-1.6-11.2 3.2-1.6 8 4.8 17.6 14.4 19.2z m-78.4 724.8c-1.6-11.2-3.2-20.8-3.2-32 0-8-6.4-17.6 4.8-22.4l-1.6-1.6c-4.8 0-11.2 1.6-17.6 1.6 9.6 6.4 11.2 14.4 9.6 25.6-6.4-6.4-11.2-14.4-17.6-20.8-1.6-1.6-3.2-3.2-4.8-3.2-8 1.6-16 3.2-24 3.2 3.2 4.8 6.4 8 6.4 11.2 1.6 8 1.6 17.6 3.2 27.2 0 3.2 1.6 6.4 1.6 9.6 0 3.2-3.2 4.8-6.4 9.6 6.4-1.6 11.2-1.6 19.2-3.2-9.6-4.8-14.4-28.8-9.6-36.8 8 9.6 14.4 17.6 22.4 27.2 3.2 6.4 8 9.6 17.6 4.8z m257.6-160c4.8-6.4 9.6-12.8 12.8-19.2 3.2-4.8 4.8-11.2 6.4-16 1.6-12.8-9.6-20.8-20.8-17.6-6.4 1.6-11.2 6.4-16 8-3.2 1.6-6.4 1.6-9.6 1.6 1.6-3.2 1.6-8 3.2-11.2 1.6-1.6 4.8-3.2 8-3.2 3.2-1.6 8-1.6 14.4-1.6-6.4-4.8-11.2-9.6-16-12.8-1.6 4.8-3.2 9.6-6.4 12.8l-9.6 14.4c-4.8 8-1.6 14.4 4.8 20.8 4.8 4.8 12.8 8 19.2 3.2 4.8-3.2 9.6-6.4 16-8 1.6-1.6 6.4 0 6.4 0 1.6 1.6 1.6 4.8 0 8-3.2 6.4-9.6 9.6-17.6 9.6h-8s0 1.6-1.6 1.6l14.4 9.6z m-584-20.8H256c4.8 8 0 11.2-4.8 16-4.8 4.8-9.6 9.6-14.4 16-1.6 3.2-4.8 6.4-4.8 9.6-3.2 12.8 4.8 19.2 12.8 27.2 9.6 8 17.6 8 25.6-1.6 4.8-4.8 9.6-11.2 14.4-16 3.2-3.2 8-4.8 12.8-8l-11.2-11.2c0 4.8 0 9.6-1.6 12.8-6.4 8-12.8 14.4-19.2 22.4-4.8 4.8-9.6 6.4-16 1.6-6.4-4.8-3.2-9.6 0-14.4 6.4-6.4 12.8-12.8 17.6-20.8 3.2-4.8 6.4-8 12.8-3.2 0-1.6 0-1.6 1.6-3.2-6.4-9.6-14.4-17.6-22.4-27.2zM912 579.2c-3.2 1.6-6.4 4.8-9.6 3.2-12.8-3.2-24-6.4-38.4-11.2 3.2-3.2 4.8-6.4 8-8 3.2-1.6 6.4-1.6 9.6-3.2v-1.6c-4.8-1.6-11.2-3.2-17.6-4.8-4.8 19.2-9.6 36.8-12.8 56 0 1.6 0 3.2 1.6 3.2 4.8 1.6 9.6 3.2 16 4.8-4.8-6.4-9.6-12.8-12.8-19.2l1.6-1.6c3.2 0 4.8 0 8 1.6 8 3.2 17.6 6.4 25.6 8 4.8 1.6 11.2 1.6 11.2 9.6 4.8-11.2 6.4-24 9.6-36.8zM467.2 844.8c1.6 4.8 3.2 8 3.2 12.8 0 9.6-1.6 19.2-3.2 28.8 0 6.4 3.2 14.4 9.6 17.6 6.4 1.6 12.8 3.2 19.2 3.2 9.6 0 16-4.8 17.6-14.4 1.6-9.6 3.2-17.6 3.2-27.2 0-6.4 0-11.2 8-12.8 0 0 0-1.6-1.6-1.6-4.8 0-11.2 0-16-1.6 1.6 4.8 4.8 8 4.8 11.2 0 11.2-1.6 20.8-3.2 32 0 6.4-4.8 8-11.2 8-6.4 0-8-4.8-8-11.2 0-8 1.6-16 1.6-24 0-6.4-1.6-12.8 8-16 0 0 0-1.6-1.6-1.6-9.6-1.6-19.2-3.2-30.4-3.2z m-145.6 4.8c1.6-6.4 1.6-11.2 3.2-17.6 3.2-12.8 4.8-25.6 8-40 0-3.2 0-6.4-1.6-8-6.4-8-11.2-8-20.8 1.6-11.2 9.6-20.8 20.8-36.8 25.6 4.8 3.2 8 6.4 9.6 8 3.2-4.8 4.8-11.2 8-11.2 4.8 0 9.6 3.2 16 4.8-3.2 6.4-6.4 12.8-8 17.6 6.4 6.4 14.4 12.8 22.4 19.2zM182.4 528c0-4.8-1.6-9.6-1.6-14.4 0-4.8 1.6-9.6 1.6-12.8 0-8-4.8-12.8-11.2-14.4-6.4-1.6-14.4 0-17.6 6.4-3.2 6.4-6.4 12.8-11.2 19.2-1.6 1.6-3.2 3.2-6.4 4.8-1.6-1.6-3.2-4.8-3.2-6.4 0-4.8 1.6-8 3.2-11.2 3.2-4.8 6.4-8 11.2-12.8H128c0 4.8 1.6 9.6 1.6 14.4 0 6.4-1.6 12.8 0 19.2 1.6 12.8 14.4 20.8 24 12.8 4.8-4.8 8-11.2 12.8-17.6 3.2-4.8 4.8-9.6 8-14.4 11.2 14.4-3.2 20.8-9.6 30.4 6.4-3.2 12.8-3.2 17.6-3.2z m684.8 24h1.6c0-1.6 1.6-3.2 1.6-4.8 8-4.8 16-11.2 25.6-16 6.4-3.2 17.6 0 20.8 6.4 0-14.4 1.6-27.2 1.6-38.4h-1.6c-3.2 6.4-14.4 9.6-20.8 4.8-9.6-6.4-17.6-12.8-27.2-19.2v16c11.2-8 12.8 4.8 20.8 6.4-6.4 3.2-11.2 12.8-20.8 9.6 0 11.2-1.6 22.4-1.6 35.2z m-656 91.2c-1.6-6.4-4.8-11.2-4.8-16 0-14.4-16-30.4-28.8-28.8-12.8 1.6-22.4 9.6-25.6 22.4-3.2 14.4 3.2 32 12.8 36.8 4.8 1.6 9.6 3.2 16-3.2-4.8 0-8 0-9.6-1.6-3.2-1.6-8-4.8-9.6-8-1.6-3.2 0-8 3.2-9.6 6.4-4.8 14.4-8 22.4-12.8 4.8-3.2 11.2-4.8 14.4 1.6 1.6 4.8 0 11.2-1.6 16 0 1.6-3.2 4.8-4.8 6.4l1.6 1.6 14.4-4.8z m473.6 201.6s-1.6 0-1.6 1.6c-4.8-6.4-9.6-11.2-14.4-17.6-1.6-3.2-3.2-6.4-4.8-11.2-8 3.2-17.6 8-27.2 12.8 4.8 3.2 8 4.8 11.2 8 9.6 9.6 17.6 20.8 25.6 30.4 1.6 1.6 6.4 3.2 8 3.2 3.2 0 8-1.6 8-8v-12.8c1.6-14.4-4.8-30.4 1.6-46.4-3.2 1.6-8 4.8-11.2 6.4 9.6 11.2 1.6 24 4.8 33.6z m-43.2 43.2c-9.6-4.8-17.6-44.8-11.2-56-11.2 3.2-22.4 6.4-33.6 11.2 9.6 4.8 19.2 46.4 11.2 56 12.8-4.8 22.4-8 33.6-11.2zM832 654.4c4.8 0 8 0 11.2 1.6 8 3.2 14.4 8 22.4 11.2 4.8 3.2 11.2 4.8 12.8 12.8 4.8-11.2 9.6-22.4 14.4-32 0 0-1.6 0-1.6-1.6l-4.8 4.8c-12.8-8-25.6-14.4-38.4-20.8V624h-1.6c-4.8 9.6-9.6 19.2-14.4 30.4zM139.2 588.8c3.2-3.2 4.8-4.8 8-6.4 8-1.6 14.4-4.8 22.4-4.8 6.4 0 14.4-8 20.8 3.2l1.6-1.6c-1.6-12.8-4.8-24-6.4-36.8h-3.2v8c-14.4 3.2-28.8 6.4-43.2 8-1.6-3.2-3.2-4.8-3.2-6.4h-3.2c1.6 14.4 4.8 25.6 6.4 36.8z m348.8 176h-1.6c-1.6 4.8-3.2 9.6-3.2 14.4 1.6 6.4 8 9.6 16 8 1.6 0 4.8 1.6 6.4 0 4.8-1.6 11.2-3.2 14.4-6.4 3.2-3.2 1.6-9.6-1.6-14.4-1.6-1.6 0-4.8 0-6.4 3.2-8 1.6-12.8-6.4-16-4.8-1.6-9.6-1.6-14.4-1.6-14.4 4.8-17.6 11.2-9.6 22.4z m324.8-404.8c-9.6 0-9.6 8-11.2 14.4-1.6 6.4 4.8 6.4 8 8 8 1.6 14.4 0 19.2 1.6 4.8 3.2 9.6 9.6 11.2 9.6 12.8-3.2 0-12.8 1.6-19.2 1.6 0 3.2 1.6 4.8 1.6h9.6c0-3.2 0-6.4-1.6-9.6-1.6-3.2-3.2-4.8-6.4-6.4-3.2-1.6-6.4-1.6-8-3.2-1.6 3.2-1.6 6.4-3.2 11.2 0 0-3.2 0-4.8-1.6-3.2-3.2-4.8-4.8-6.4-8-1.6-4.8-6.4-6.4-9.6-3.2-1.6 1.6-1.6 6.4 0 9.6 1.6 3.2 4.8 4.8 8 8l4.8 4.8c-14.4-1.6-14.4-1.6-16-17.6zM608 747.2c-4.8 0-9.6-1.6-14.4-1.6-9.6 0-19.2 6.4-20.8 16-3.2 9.6 0 20.8 6.4 25.6 4.8 4.8 16 4.8 24 0 6.4-3.2 9.6-11.2 6.4-17.6-1.6-6.4-6.4-9.6-14.4-9.6-3.2 0-6.4 0-9.6 1.6l-1.6-1.6c3.2-1.6 6.4-6.4 8-6.4 3.2 0 6.4 3.2 11.2 4.8 3.2-3.2 3.2-6.4 4.8-11.2z m-75.2 27.2c-1.6 6.4-6.4 11.2 3.2 14.4 12.8 3.2 22.4 0 28.8-12.8 4.8-8 1.6-22.4-6.4-28.8-6.4-4.8-17.6-4.8-25.6 1.6-3.2 3.2-6.4 9.6-4.8 14.4 1.6 6.4 6.4 11.2 14.4 11.2h11.2c-9.6 11.2-12.8 11.2-20.8 0z m-105.6-561.6c1.6 0 3.2-1.6 4.8-1.6-1.6-3.2-1.6-8-3.2-11.2-1.6-4.8-6.4-9.6-8-14.4-4.8-8-6.4-17.6-11.2-27.2-4.8-11.2-11.2-24-8-36.8v-3.2c-3.2-3.2-6.4-8-9.6-9.6-3.2-1.6-8 1.6-9.6 4.8-1.6 3.2 1.6 8 3.2 11.2 3.2 4.8 6.4 9.6 9.6 16l24 57.6c0 4.8 4.8 9.6 8 14.4z m-51.2 11.2c-4.8-19.2-9.6-35.2-14.4-51.2-1.6-6.4-4.8-11.2-6.4-17.6-3.2-4.8-8-4.8-9.6 0-1.6 1.6 0 6.4 0 9.6 1.6 4.8 6.4 8 8 12.8 4.8 14.4 11.2 28.8 11.2 43.2 0 3.2 4.8 6.4 8 9.6 0-3.2 3.2-4.8 3.2-6.4z m96 563.2s0-1.6 1.6-1.6c-8-1.6-9.6-6.4-8-14.4v-25.6c-8 1.6-16 4.8-22.4 6.4 3.2 3.2 8 6.4 8 11.2 0 8 6.4 20.8-9.6 24l1.6 1.6c8-1.6 19.2-1.6 28.8-1.6z m-76.8-601.6c-3.2-12.8-6.4-22.4-11.2-33.6-1.6-3.2-6.4-4.8-9.6-4.8-1.6 0-6.4 3.2-6.4 3.2 0 3.2 1.6 6.4 3.2 11.2 1.6 4.8 4.8 8 6.4 11.2 1.6 4.8 1.6 9.6 4.8 12.8 1.6 1.6 4.8 4.8 8 4.8 1.6 0 3.2-3.2 4.8-4.8z m302.4 33.6c-6.4-9.6-11.2-17.6-19.2-24-4.8-4.8-8 0-6.4 4.8 1.6 8 3.2 16 6.4 24 1.6 3.2 6.4 4.8 11.2 4.8 1.6-1.6 3.2-6.4 8-9.6z" fill="#FFFFFF"></path><path d="M686.4 699.2c-12.8-1.6-27.2 3.2-40-3.2-1.6 1.6-4.8 3.2-6.4 3.2h-12.8c-14.4 0-19.2-3.2-20.8-16-3.2-24-4.8-49.6-6.4-73.6-1.6-27.2-1.6-54.4-3.2-81.6 0-14.4 0-28.8-1.6-43.2 0-11.2-1.6-22.4-1.6-33.6 0-6.4-6.4-9.6-12.8-11.2h-17.6c11.2 9.6 12.8 20.8 12.8 33.6 0 32 1.6 64 1.6 94.4 0 24 1.6 49.6 0 73.6-1.6 40-43.2 64-78.4 49.6-24-9.6-36.8-35.2-35.2-65.6l4.8-110.4c0-17.6 0-36.8 3.2-54.4 0-8 4.8-14.4 8-20.8-12.8-3.2-22.4 0-24 9.6-1.6 8-1.6 16-1.6 25.6-1.6 19.2-3.2 38.4-3.2 57.6-1.6 33.6-1.6 65.6-4.8 99.2-1.6 19.2-1.6 38.4-8 56-1.6 6.4-4.8 9.6-12.8 8h-22.4c4.8-6.4 8-12.8 11.2-17.6h-1.6c-6.4 16-19.2 20.8-36.8 17.6-6.4-1.6-12.8 0-22.4 0l20.8-20.8c12.8-12.8 17.6-28.8 19.2-46.4 1.6-25.6 3.2-49.6 4.8-75.2 1.6-14.4 3.2-28.8 3.2-43.2 1.6-24 3.2-46.4 4.8-70.4 1.6-14.4 3.2-27.2 4.8-41.6 1.6-11.2 8-16 20.8-16h27.2c4.8 0 6.4-1.6 6.4-6.4 1.6-17.6 1.6-35.2 3.2-52.8 3.2-22.4 11.2-32 40-38.4 1.6 0 3.2 0 3.2-1.6-6.4 0-11.2-1.6-17.6-1.6-14.4 0-20.8-6.4-19.2-20.8 9.6 1.6 19.2 1.6 27.2 3.2 9.6 0 14.4 4.8 17.6 14.4 1.6 6.4 1.6 6.4 9.6 6.4 0-3.2 1.6-4.8 1.6-8 1.6-8 6.4-9.6 16-11.2 9.6-1.6 20.8 3.2 28.8-6.4 3.2 11.2-4.8 24-14.4 24h-25.6v1.6c4.8 0 8 1.6 12.8 1.6 17.6 4.8 27.2 14.4 30.4 33.6 1.6 17.6 4.8 35.2 6.4 52.8 0 8 3.2 9.6 11.2 9.6H624c8 0 12.8 6.4 14.4 12.8 1.6 11.2 4.8 22.4 4.8 32 1.6 41.6 3.2 84.8 6.4 126.4 1.6 30.4 3.2 59.2 6.4 89.6 1.6 19.2 14.4 33.6 27.2 44.8l4.8 4.8c-1.6 4.8-1.6 6.4-1.6 6.4zM505.6 440c9.6 12.8 9.6 12.8 9.6 28.8v169.6c1.6 3.2 4.8 6.4 6.4 6.4 1.6 0 6.4-3.2 6.4-4.8 1.6-3.2 1.6-6.4 1.6-9.6V592c0-32 0-64 1.6-96 0-19.2-4.8-38.4 11.2-54.4-14.4-1.6-14.4-1.6-14.4-12.8 0-24-1.6-46.4-1.6-70.4 0-1.6 3.2-6.4 4.8-6.4 12.8-4.8 19.2-14.4 20.8-27.2 1.6-12.8-4.8-24-16-28.8-9.6-4.8-20.8-4.8-30.4 3.2-9.6 6.4-14.4 16-12.8 25.6 1.6 11.2 4.8 20.8 17.6 25.6 4.8 1.6 11.2 3.2 9.6 11.2-1.6 20.8 0 40 0 60.8 0 6.4 0 12.8-1.6 20.8-3.2-3.2-6.4-3.2-12.8-3.2z" fill="#FF090B"></path><path d="M660.8 772.8l-4.8-9.6c9.6-6.4 20.8-11.2 28.8-19.2 25.6-19.2 48-41.6 67.2-67.2 12.8-17.6 25.6-36.8 33.6-56 17.6-44.8 25.6-92.8 20.8-142.4-3.2-36.8-14.4-72-32-104s-41.6-59.2-70.4-84.8c-20.8-17.6-43.2-33.6-67.2-44.8-24-11.2-49.6-17.6-75.2-20.8-28.8-4.8-57.6-3.2-86.4 1.6-30.4 4.8-57.6 14.4-84.8 28.8-25.6 14.4-48 32-70.4 52.8-17.6 17.6-32 38.4-44.8 60.8-14.4 27.2-25.6 56-32 84.8-6.4 27.2-8 54.4-4.8 80 3.2 32 9.6 62.4 24 91.2 8 16 16 33.6 27.2 48 16 20.8 33.6 40 51.2 57.6 9.6 9.6 24 17.6 35.2 25.6 6.4 3.2 4.8 6.4 1.6 11.2-3.2 4.8-6.4 1.6-8 0-19.2-16-40-28.8-57.6-46.4-14.4-14.4-25.6-30.4-38.4-46.4-17.6-24-30.4-51.2-38.4-81.6-12.8-41.6-14.4-84.8-8-128 4.8-33.6 16-65.6 30.4-94.4 9.6-20.8 24-38.4 38.4-56 24-28.8 54.4-52.8 88-70.4 25.6-12.8 52.8-20.8 80-27.2 35.2-8 70.4-8 105.6-1.6 41.6 8 80 22.4 113.6 48 33.6 24 59.2 52.8 83.2 86.4 24 33.6 38.4 70.4 43.2 110.4 3.2 19.2 4.8 40 4.8 59.2-1.6 22.4-4.8 43.2-9.6 65.6-4.8 20.8-12.8 41.6-22.4 59.2-11.2 20.8-25.6 40-40 59.2-17.6 22.4-40 40-62.4 57.6-3.2 4.8-11.2 8-19.2 12.8zM188.8 363.2c-6.4-1.6-11.2-4.8-17.6-6.4 1.6 8 1.6 14.4 4.8 22.4 1.6 4.8 8 8 12.8 9.6 4.8 1.6 9.6 4.8 8 9.6-1.6 3.2-8 6.4-9.6 6.4-9.6-1.6-19.2-6.4-28.8-9.6-6.4-3.2-9.6-8-6.4-14.4 1.6-3.2 8-4.8 12.8-6.4v-3.2c-4.8-16 0-30.4 4.8-44.8 6.4-14.4 14.4-27.2 28.8-35.2 11.2-6.4 22.4-4.8 32 0 6.4 3.2 6.4 8 3.2 12.8-1.6 4.8-3.2 11.2-4.8 16-1.6 8-3.2 16-6.4 22.4-1.6 3.2-6.4 6.4-9.6 9.6-1.6 1.6-4.8 4.8-6.4 8-1.6 4.8-1.6 11.2-3.2 16 0 1.6-4.8 4.8-6.4 4.8-1.6 0-4.8-3.2-4.8-6.4-3.2-4.8-3.2-8-3.2-11.2z m20.8-59.2c-9.6-3.2-19.2 4.8-24 17.6 12.8-1.6 11.2 11.2 12.8 17.6 9.6 1.6 8-4.8 9.6-9.6 0-9.6 1.6-17.6 1.6-25.6z m-20.8 41.6c-3.2-4.8-4.8-9.6-8-14.4h-3.2c-1.6 4.8-4.8 9.6-6.4 14.4h17.6zM233.6 681.6c3.2 3.2 6.4 6.4 8 9.6l9.6 19.2c-4.8-6.4-8-1.6-11.2 1.6-9.6 8-19.2 16-30.4 24 0 1.6 1.6 4.8 1.6 6.4l-1.6 1.6c-11.2-19.2-24-40-35.2-57.6 4.8-1.6 9.6-3.2 12.8-4.8 8-4.8 14.4-9.6 20.8-16 3.2-3.2 4.8-8 8-12.8 4.8 8 14.4 16 17.6 28.8-9.6-3.2-12.8 4.8-17.6 8-1.6 0 0 4.8 1.6 8 1.6 0 1.6 0 3.2 1.6 3.2-6.4 8-11.2 12.8-17.6z m-24 11.2c-6.4 6.4-12.8 9.6-19.2 14.4 1.6 3.2 3.2 4.8 6.4 8 3.2-8 17.6-8 12.8-22.4zM748.8 764.8c6.4-6.4 12.8-12.8 17.6-20.8l14.4-14.4c4.8-3.2 9.6-6.4 14.4-3.2 4.8 4.8 8 9.6 4.8 16 0 1.6 0 1.6 1.6 1.6 4.8 3.2 9.6 4.8 16 8 1.6 1.6 4.8 1.6 8 3.2 1.6 6.4-1.6 16-9.6 19.2-6.4 3.2-12.8 0-17.6-4.8-1.6-1.6-1.6-3.2-1.6-3.2-3.2-1.6-4.8-1.6-8-1.6 0 1.6 1.6 4.8 3.2 6.4 1.6 3.2 4.8 4.8 6.4 6.4 3.2 1.6 6.4 3.2 11.2 6.4-8 6.4-16 12.8-22.4 19.2-1.6-8-27.2-38.4-38.4-38.4z m40-9.6c-11.2-12.8-11.2-12.8-16-6.4 3.2 3.2 6.4 8 9.6 12.8l6.4-6.4zM851.2 345.6c6.4-3.2 11.2-4.8 16-8 4.8-1.6 8-4.8 12.8-8 1.6-1.6 4.8-1.6 6.4-3.2 1.6 3.2 1.6 4.8 1.6 8 0 1.6-1.6 3.2-1.6 6.4 3.2-1.6 4.8-3.2 8-3.2h8c1.6 0 1.6 3.2 1.6 3.2-1.6 1.6-3.2 4.8-4.8 4.8-4.8 1.6-11.2 1.6-16 1.6 12.8 6.4 25.6 6.4 36.8 1.6 3.2 9.6 1.6 11.2-8 11.2 0 3.2 0 6.4-1.6 6.4-1.6 1.6-4.8 0-8-1.6s-6.4-3.2-9.6 0c-1.6 1.6-6.4 1.6-8 3.2h-11.2c1.6 3.2 3.2 6.4 4.8 8 3.2 6.4-1.6 14.4-9.6 12.8-1.6 0-1.6 0-3.2-1.6-3.2-4.8-4.8-8-8-14.4 3.2 0 6.4 1.6 11.2 3.2v-6.4c-9.6-11.2-19.2-20.8-32-27.2-1.6-1.6-4.8-3.2-4.8-4.8-1.6-4.8-6.4-9.6 0-12.8 4.8-3.2 8 1.6 11.2 4.8 0 8 4.8 12.8 8 16zM745.6 830.4c9.6-6.4 9.6-6.4 9.6-27.2 0 0 1.6 0 1.6-1.6 3.2 6.4 6.4 11.2 9.6 17.6 0 0 0 1.6-1.6 3.2-12.8 9.6-25.6 19.2-40 30.4 3.2-11.2-17.6-46.4-28.8-48 14.4-11.2 28.8-22.4 41.6-32 3.2 6.4 6.4 11.2 9.6 17.6v1.6c-8-3.2-16-11.2-25.6-1.6 3.2 4.8 8 11.2 11.2 17.6 1.6 0 1.6 0 3.2-1.6v-12.8h1.6c4.8 6.4 8 12.8 12.8 19.2 0 0 0 1.6-1.6 1.6-4.8-1.6-8-3.2-12.8-4.8l-1.6 1.6c3.2 6.4 8 12.8 11.2 19.2zM406.4 828.8c-3.2 4.8-6.4 8-8 11.2-6.4 12.8-11.2 27.2-16 40-9.6-1.6-12.8-6.4-14.4-14.4-1.6-12.8-4.8-27.2-8-40-3.2 9.6-8 19.2-11.2 28.8-1.6 3.2 1.6 6.4 3.2 12.8-6.4-3.2-11.2-6.4-14.4-8 3.2-3.2 6.4-4.8 8-8l14.4-38.4c-1.6-1.6-3.2-1.6-6.4-3.2 1.6-4.8 25.6 6.4 27.2 12.8 3.2 9.6 4.8 19.2 8 28.8 3.2-8 11.2-14.4 1.6-24l1.6-1.6c6.4-1.6 11.2 0 14.4 3.2zM664 174.4c-9.6-1.6-16-9.6-14.4-17.6 1.6-4.8 6.4-6.4 11.2-3.2 11.2 6.4 19.2 6.4 25.6-8 1.6-6.4 4.8-11.2 8-16 8 4.8 11.2 9.6 8 16-3.2 4.8-6.4 8-11.2 14.4 9.6-1.6 19.2-1.6 22.4 11.2h-24c-3.2 0-8 1.6-9.6 4.8-9.6 16-27.2 24-43.2 32-1.6 1.6-6.4 0-8 0 0-3.2 0-8 1.6-11.2 1.6-1.6 6.4-4.8 6.4-4.8 4.8 4.8 8 0 11.2-3.2 6.4-4.8 11.2-8 17.6-12.8l-1.6-1.6zM585.6 899.2c-9.6 4.8-14.4 1.6-19.2-4.8-6.4-9.6-14.4-17.6-22.4-27.2-4.8 9.6 0 32 9.6 36.8-6.4 1.6-12.8 1.6-19.2 3.2 3.2-3.2 6.4-6.4 6.4-9.6 0-3.2-1.6-6.4-1.6-9.6-1.6-9.6-1.6-17.6-3.2-27.2 0-3.2-4.8-8-6.4-11.2 8-1.6 16-3.2 24-3.2 1.6 0 3.2 1.6 4.8 3.2 6.4 6.4 11.2 12.8 17.6 20.8 3.2-11.2 0-19.2-9.6-25.6 8-1.6 12.8-1.6 17.6-1.6l1.6 1.6c-11.2 6.4-4.8 16-4.8 22.4 1.6 11.2 4.8 22.4 4.8 32zM843.2 739.2c-4.8-3.2-9.6-8-14.4-11.2 0 0 0-1.6 1.6-1.6h8c8 0 12.8-3.2 17.6-9.6 1.6-1.6 0-4.8 0-8 0-1.6-4.8-1.6-6.4 0-4.8 3.2-9.6 6.4-16 8-8 4.8-14.4 3.2-19.2-3.2-6.4-6.4-8-12.8-4.8-20.8l9.6-14.4c1.6-3.2 3.2-8 6.4-12.8 4.8 3.2 9.6 8 16 12.8-6.4 0-9.6 1.6-14.4 1.6-3.2 0-6.4 1.6-8 3.2-1.6 3.2-1.6 6.4-3.2 11.2 3.2 0 6.4 0 9.6-1.6 4.8-3.2 11.2-6.4 16-8 12.8-3.2 22.4 4.8 20.8 17.6 0 6.4-3.2 11.2-6.4 16-3.2 9.6-8 14.4-12.8 20.8zM259.2 718.4c8 9.6 16 17.6 24 27.2 0 1.6 0 1.6-1.6 3.2-6.4-4.8-9.6-1.6-12.8 3.2-4.8 6.4-11.2 12.8-17.6 20.8-4.8 4.8-6.4 9.6 0 14.4 4.8 4.8 11.2 4.8 16-1.6 6.4-8 12.8-14.4 19.2-22.4 1.6-3.2 1.6-8 1.6-12.8 4.8 4.8 8 9.6 11.2 11.2-4.8 3.2-9.6 4.8-12.8 8-4.8 4.8-9.6 11.2-14.4 16-8 9.6-16 9.6-25.6 1.6-8-8-16-14.4-12.8-27.2 0-3.2 3.2-6.4 4.8-9.6 4.8-4.8 9.6-11.2 14.4-16 4.8-4.8 9.6-8 4.8-16h1.6zM912 579.2c-3.2 12.8-6.4 25.6-8 36.8-1.6-6.4-6.4-8-11.2-9.6-9.6-1.6-17.6-4.8-25.6-8-1.6 0-4.8 0-8-1.6l-1.6 1.6c3.2 6.4 8 11.2 12.8 19.2-6.4-1.6-11.2-3.2-16-4.8-1.6 0-1.6-3.2-1.6-3.2 4.8-17.6 8-36.8 12.8-56 6.4 1.6 11.2 3.2 17.6 4.8v1.6c-3.2 1.6-6.4 1.6-9.6 3.2-3.2 1.6-4.8 4.8-8 8 14.4 4.8 27.2 8 38.4 11.2 1.6 1.6 4.8-1.6 8-3.2zM467.2 844.8c9.6 0 20.8 1.6 32 1.6 0 0 0 1.6 1.6 1.6-9.6 3.2-8 9.6-8 16 0 8-1.6 16-1.6 24 0 6.4 1.6 9.6 8 11.2 4.8 0 9.6-1.6 11.2-8 1.6-11.2 3.2-20.8 3.2-32 0-3.2-3.2-6.4-4.8-11.2 4.8 0 11.2 0 16 1.6 0 0 0 1.6 1.6 1.6-8 1.6-8 6.4-8 12.8 0 9.6-1.6 17.6-3.2 27.2-1.6 9.6-6.4 14.4-17.6 14.4-6.4 0-12.8-1.6-19.2-3.2-6.4-1.6-9.6-11.2-9.6-17.6 1.6-9.6 1.6-19.2 3.2-28.8-1.6-3.2-3.2-6.4-4.8-11.2zM321.6 849.6c-8-6.4-16-12.8-24-17.6 3.2-6.4 4.8-11.2 8-17.6-6.4-1.6-11.2-4.8-16-4.8-1.6 0-4.8 6.4-8 11.2-1.6-1.6-6.4-4.8-9.6-8 16-4.8 25.6-16 36.8-25.6 9.6-8 12.8-9.6 20.8-1.6 1.6 1.6 3.2 4.8 1.6 8-1.6 12.8-4.8 25.6-8 40 0 4.8 0 9.6-1.6 16z m-12.8-54.4c-4.8 1.6-8 4.8-11.2 6.4 3.2 1.6 4.8 4.8 8 6.4 1.6-4.8 3.2-8 3.2-12.8zM182.4 528h-17.6c6.4-9.6 20.8-14.4 9.6-30.4-3.2 4.8-4.8 9.6-8 14.4-3.2 6.4-8 12.8-12.8 17.6-9.6 8-22.4 0-24-12.8v-19.2c0-4.8 0-9.6-1.6-14.4h19.2c-4.8 4.8-9.6 8-11.2 12.8-1.6 3.2-3.2 8-3.2 11.2 0 1.6 1.6 4.8 3.2 6.4 1.6-1.6 4.8-3.2 6.4-4.8 3.2-6.4 6.4-12.8 11.2-19.2 3.2-6.4 11.2-8 17.6-6.4 6.4 1.6 11.2 8 11.2 14.4 0 4.8-1.6 9.6-1.6 12.8 0 6.4 1.6 11.2 1.6 17.6zM867.2 552c0-12.8 1.6-24 1.6-36.8 11.2 4.8 14.4-4.8 20.8-9.6-6.4-1.6-9.6-14.4-20.8-6.4v-16c9.6 6.4 17.6 12.8 27.2 19.2 8 4.8 17.6 1.6 20.8-4.8h1.6c0 12.8-1.6 25.6-1.6 38.4-3.2-6.4-14.4-9.6-20.8-6.4-9.6 4.8-17.6 11.2-25.6 16-1.6 1.6-1.6 3.2-1.6 4.8 0 1.6 0 1.6-1.6 1.6zM211.2 643.2c-4.8 1.6-11.2 4.8-16 6.4l-1.6-1.6c1.6-1.6 4.8-3.2 4.8-6.4 1.6-4.8 3.2-12.8 1.6-16-1.6-6.4-9.6-3.2-14.4-1.6-8 3.2-16 8-22.4 12.8-3.2 1.6-4.8 8-3.2 9.6 1.6 3.2 6.4 6.4 9.6 8 3.2 1.6 6.4 1.6 9.6 1.6-6.4 6.4-11.2 4.8-16 3.2-9.6-4.8-16-24-12.8-36.8 3.2-12.8 12.8-20.8 25.6-22.4 12.8-1.6 28.8 14.4 28.8 28.8 3.2 3.2 4.8 8 6.4 14.4zM684.8 844.8c-3.2-11.2 3.2-24-6.4-35.2 3.2-1.6 8-3.2 11.2-6.4-6.4 16-1.6 30.4-1.6 46.4v12.8c1.6 6.4-3.2 8-8 8-3.2 0-6.4-1.6-8-3.2-9.6-9.6-17.6-20.8-25.6-30.4-3.2-3.2-6.4-4.8-11.2-8 9.6-4.8 19.2-9.6 27.2-12.8 1.6 4.8 1.6 8 4.8 11.2 4.8 6.4 9.6 11.2 14.4 17.6 3.2 1.6 3.2 1.6 3.2 0zM641.6 888c-11.2 3.2-20.8 6.4-33.6 9.6 8-9.6-1.6-51.2-11.2-56 11.2-3.2 20.8-6.4 33.6-11.2-6.4 12.8 1.6 52.8 11.2 57.6zM832 654.4c4.8-9.6 9.6-20.8 14.4-32h1.6v6.4c12.8 6.4 25.6 14.4 38.4 20.8l4.8-4.8s1.6 0 1.6 1.6c-4.8 11.2-9.6 22.4-14.4 32 0-8-6.4-9.6-12.8-12.8-8-3.2-14.4-8-22.4-11.2H832zM139.2 588.8c-1.6-11.2-3.2-22.4-6.4-33.6h3.2c1.6 1.6 1.6 3.2 3.2 6.4 14.4-3.2 28.8-4.8 43.2-8v-8h3.2c1.6 12.8 4.8 24 6.4 36.8l-1.6 1.6c-6.4-11.2-14.4-3.2-20.8-3.2-8 0-14.4 3.2-22.4 4.8-3.2-1.6-4.8 0-8 3.2z" fill="#FF090B"></path><path d="M488 764.8c-6.4-11.2-3.2-19.2 9.6-20.8 4.8 0 9.6 0 14.4 1.6 8 1.6 9.6 8 6.4 16 0 1.6-1.6 4.8 0 6.4 3.2 4.8 6.4 9.6 1.6 14.4-3.2 3.2-9.6 4.8-14.4 6.4h-6.4c-6.4 0-14.4-1.6-16-8-1.6-4.8 1.6-9.6 3.2-14.4 0-1.6 0-1.6 1.6-1.6z m22.4 11.2c-4.8-3.2-8-6.4-9.6-6.4-3.2 0-6.4 3.2-6.4 6.4 0 1.6 3.2 6.4 6.4 6.4s4.8-3.2 9.6-6.4z m-9.6-27.2c-1.6 3.2-4.8 4.8-4.8 6.4 0 1.6 3.2 4.8 4.8 4.8 1.6 0 4.8-3.2 4.8-4.8 1.6-1.6-1.6-3.2-4.8-6.4zM812.8 360c1.6 16 3.2 16 16 12.8l-4.8-4.8c-3.2-3.2-6.4-4.8-8-8-1.6-3.2-1.6-8 0-9.6 3.2-3.2 8-1.6 9.6 3.2 1.6 3.2 4.8 6.4 6.4 8 1.6 1.6 3.2 1.6 4.8 1.6 1.6-4.8 1.6-8 3.2-11.2 3.2 1.6 6.4 1.6 8 3.2 1.6 1.6 4.8 3.2 6.4 6.4 1.6 3.2 0 6.4 1.6 9.6h-9.6c-1.6 0-3.2 0-4.8-1.6-1.6 6.4 9.6 14.4-1.6 19.2-1.6 0-6.4-4.8-11.2-9.6-4.8 0-11.2 0-19.2-1.6-3.2 0-9.6-1.6-8-8 1.6-1.6 1.6-9.6 11.2-9.6zM608 747.2c-1.6 4.8-3.2 8-3.2 11.2-3.2-1.6-8-4.8-11.2-4.8-3.2 0-6.4 3.2-8 6.4l1.6 1.6c3.2 0 6.4-1.6 9.6-1.6 6.4 0 11.2 3.2 14.4 9.6 1.6 6.4-1.6 14.4-6.4 17.6-8 4.8-19.2 3.2-24 0-6.4-6.4-9.6-17.6-6.4-25.6 3.2-8 11.2-16 20.8-16 3.2-1.6 8 0 12.8 1.6z m-8 28.8c-3.2-3.2-4.8-6.4-8-9.6-1.6 3.2-6.4 4.8-4.8 8 0 3.2 3.2 4.8 6.4 8l6.4-6.4zM532.8 774.4c8 11.2 11.2 11.2 19.2 0h-11.2c-8 0-12.8-4.8-14.4-11.2 0-4.8 1.6-11.2 4.8-14.4 6.4-8 19.2-8 25.6-1.6 8 6.4 11.2 20.8 6.4 28.8-6.4 11.2-16 16-28.8 12.8-8-1.6-3.2-8-1.6-14.4z m20.8-14.4l-8-8c-1.6 3.2-4.8 4.8-6.4 8 0 3.2 3.2 4.8 4.8 8 3.2-3.2 6.4-4.8 9.6-8zM427.2 212.8c-3.2-4.8-6.4-9.6-8-14.4l-24-57.6c-1.6-4.8-6.4-11.2-9.6-16-1.6-3.2-4.8-8-3.2-11.2 1.6-3.2 6.4-6.4 9.6-4.8 3.2 1.6 6.4 6.4 9.6 9.6v3.2c-3.2 14.4 3.2 25.6 8 36.8 4.8 8 8 17.6 11.2 27.2 1.6 4.8 6.4 9.6 8 14.4 1.6 3.2 1.6 8 3.2 11.2-1.6 0-3.2 1.6-4.8 1.6zM376 224l-4.8 4.8c-3.2-3.2-8-6.4-8-9.6 0-16-4.8-28.8-11.2-43.2-1.6-4.8-4.8-8-8-12.8-1.6-3.2-1.6-8 0-9.6 3.2-3.2 8-3.2 9.6 0 3.2 4.8 4.8 11.2 6.4 17.6 8 17.6 11.2 33.6 16 52.8zM472 787.2h-30.4l-1.6-1.6c16-3.2 9.6-14.4 9.6-24 0-3.2-4.8-6.4-8-11.2 6.4-1.6 12.8-3.2 22.4-6.4 0 8 1.6 17.6 0 25.6 0 6.4 0 12.8 8 14.4 1.6 1.6 1.6 3.2 0 3.2zM395.2 185.6c-1.6 1.6-3.2 4.8-4.8 4.8-3.2 0-6.4-1.6-8-4.8-1.6-3.2-3.2-9.6-4.8-12.8-1.6-4.8-4.8-8-6.4-11.2-1.6-3.2-3.2-6.4-3.2-11.2 0-1.6 4.8-4.8 6.4-3.2 3.2 0 8 3.2 9.6 4.8 4.8 11.2 6.4 22.4 11.2 33.6zM697.6 219.2c-3.2 3.2-6.4 8-9.6 8-3.2 0-9.6-1.6-11.2-4.8-3.2-8-4.8-16-6.4-24 0-3.2 3.2-9.6 6.4-4.8 8 8 14.4 16 20.8 25.6z" fill="#FF090B"></path><path d="M505.6 440c4.8 0 9.6 0 14.4-1.6 0-6.4 1.6-12.8 1.6-20.8v-60.8c0-8-6.4-9.6-9.6-11.2-11.2-4.8-16-14.4-17.6-25.6-1.6-11.2 4.8-19.2 12.8-25.6 9.6-6.4 20.8-8 30.4-3.2 11.2 6.4 16 17.6 16 28.8-1.6 12.8-8 22.4-20.8 27.2-1.6 0-4.8 4.8-4.8 6.4 0 24 0 46.4 1.6 70.4 0 12.8 0 12.8 14.4 12.8-16 16-11.2 36.8-11.2 54.4-1.6 32-1.6 64-1.6 96v38.4c0 3.2 0 6.4-1.6 9.6-1.6 3.2-4.8 4.8-6.4 4.8-3.2 0-6.4-3.2-6.4-6.4-1.6-3.2 0-6.4 0-9.6v-105.6V464c0-9.6-1.6-11.2-11.2-24zM209.6 304c-1.6 8-1.6 16-1.6 24 0 6.4 0 11.2-9.6 9.6-3.2-6.4 0-17.6-12.8-17.6 4.8-11.2 14.4-19.2 24-16zM188.8 345.6h-16c1.6-4.8 4.8-9.6 6.4-14.4h3.2c1.6 4.8 3.2 9.6 6.4 14.4zM209.6 692.8c3.2 14.4-9.6 14.4-12.8 22.4-3.2-3.2-3.2-6.4-6.4-8 8-3.2 12.8-8 19.2-14.4zM233.6 681.6c-4.8 6.4-9.6 11.2-14.4 17.6-1.6 0-1.6 0-3.2-1.6 0-3.2-1.6-6.4-1.6-8 6.4-3.2 9.6-9.6 19.2-8-1.6 0-1.6 0 0 0zM788.8 755.2c-1.6 1.6-3.2 3.2-6.4 4.8-3.2-4.8-6.4-8-9.6-12.8 4.8-6.4 4.8-6.4 16 8zM308.8 795.2c-1.6 4.8-1.6 8-3.2 12.8-3.2-3.2-4.8-4.8-8-6.4 4.8-1.6 6.4-4.8 11.2-6.4zM510.4 776c-4.8 3.2-8 6.4-9.6 6.4-3.2 0-6.4-4.8-6.4-6.4 0-1.6 3.2-4.8 6.4-6.4 3.2 0 4.8 3.2 9.6 6.4zM500.8 748.8c3.2 3.2 4.8 4.8 4.8 6.4 0 1.6-3.2 4.8-4.8 4.8-1.6 0-4.8-3.2-4.8-4.8 0-1.6 3.2-3.2 4.8-6.4zM600 776c-3.2 3.2-4.8 4.8-6.4 8-1.6-3.2-6.4-4.8-6.4-8s3.2-4.8 4.8-8l8 8zM553.6 760l-8 8c-1.6-3.2-4.8-4.8-4.8-8s3.2-4.8 6.4-8c1.6 1.6 3.2 4.8 6.4 8z" fill="#FFFFFF"></path></svg>